<svg id="Elements" xmlns="http://www.w3.org/2000/svg" viewBox="0 0 1751.36 1743.46"><defs><style>.cls-1{fill:#cdcbcc;}.cls-2{fill:#b6b3b6;}.cls-3{fill:#092050;}.cls-4{fill:#ffb398;}.cls-5{fill:#f55d4a;}.cls-6{fill:#b0aeaf;}.cls-7{fill:#9c9a9b;}.cls-8{fill:#fff;}.cls-9{fill:#a9becf;}.cls-10{fill:#bccbd3;}.cls-11{fill:#193053;}.cls-12{fill:#356186;}.cls-13{fill:#e99861;}.cls-14{fill:#00bed1;}.cls-15{fill:#928e92;}.cls-16{fill:#736e73;}.cls-17{fill:#bcbec0;}.cls-18{fill:#008ba5;}.cls-19{fill:#aaa7aa;}.cls-20{fill:#e9ebeb;}.cls-21{fill:#ffc827;}</style></defs><title>home-img</title><path class="cls-1" d="M124.32,1512.63l.26-1.38,194-1033.31,1.12.44L1534.77,951.69l95.61,336.87-1.13.16ZM320.11,480.68,126.8,1510.24l1501-223.33-94.71-333.72Z" transform="translate(-124.32 -128.27)"/><polygon class="cls-1" points="14.15 1392.85 207.93 360.72 1422.53 833.85 1517.69 1169.14 14.15 1392.85"/><polygon class="cls-2" points="220.13 851.51 366.09 851.51 416.15 596.01 270.19 596.01 220.13 851.51"/><polygon class="cls-2" points="407.38 851.51 553.35 851.51 603.4 596.01 457.44 596.01 407.38 851.51"/><polygon class="cls-2" points="161.92 1148.62 307.88 1148.62 357.94 893.13 211.98 893.13 161.92 1148.62"/><polygon class="cls-2" points="349.18 1148.62 495.13 1148.62 545.19 893.13 399.23 893.13 349.18 1148.62"/><path class="cls-3" d="M850,729.07c0,202.27,95.41,303.41,95.41,303.41l202.27-303.41s-76.09-148.84-101.13-148.84S850,729.07,850,729.07Z" transform="translate(-124.32 -128.27)"/><path class="cls-4" d="M1141.37,944.81l38.3-20.35s-84.92-40.37-94.66-40.37-120-11.4-120-11.4c-1.43,6.21-3,12.26-4.71,18.13-33.86,4.64-70.4,3.75-70.4,3.75s-30.62,158.69-30.62,178.18,116.93,103,116.93,103,206-137.82,206-146.17,19.49-41.76,19.49-41.76S1166.49,962.92,1141.37,944.81Z" transform="translate(-124.32 -128.27)"/><path class="cls-3" d="M1181.4,1031.07l.1-.12a5.14,5.14,0,0,0,.35-.47l.05-.06a3.63,3.63,0,0,0,.23-.41.36.36,0,0,0,0-.09.88.88,0,0,0,.08-.32c0-8.35,19.49-41.76,19.49-41.76l-.23-.16-.58-.41-2-1.41-1-.69-2-1.44-.25-.17-2.54-1.81-11-7.77-.53-.38-7.28-5.17-.05,0-1.15-.82-.75-.53-2.9-2.06h0c-9.33-6.65-19.37-13.83-28.16-20.17l38.3-20.35s-84.92-40.37-94.66-40.37-120-11.4-120-11.4c-1.43,6.21-3,12.26-4.71,18.13-1.18.17-2.36.32-3.55.47,11,17.88,22.73,35.29,35.1,52.24,27.35,37.46,58,73.25,90.55,107.44-5,5-8,8.14-8,8.14l-92.14,32.11s-51.36-70-52.08-93.48c-1-32.22,20.1-73.72,21.76-105.88a528.37,528.37,0,0,1-62,2.71s-30.62,158.69-30.62,178.18,116.93,103,116.93,103,77.07-51.55,136.93-93.51h0l.06,0,6.83-4.8.35-.25,6.55-4.62.19-.14,6.33-4.49.32-.23,3.06-2.19,0,0,2.92-2.09.3-.22,2.89-2.07.19-.14,2.67-1.94.26-.18,2.66-1.93.37-.27,2.57-1.88,0,0,2.5-1.84.41-.3q2.43-1.78,4.69-3.48l.39-.29,2.18-1.64a1.33,1.33,0,0,0,.19-.14l1.92-1.45.37-.28,1.94-1.48.29-.22,1.68-1.3.27-.21,1.71-1.34.32-.26,1.51-1.19.14-.11,1.49-1.2.3-.25,1.38-1.14h0c.43-.36.84-.7,1.23-1l.26-.21c.38-.33.75-.65,1.09-1l.13-.12c.31-.27.6-.53.87-.79l.19-.17c.3-.27.57-.53.82-.78l.14-.14c.22-.21.42-.42.6-.61l.12-.12Z" transform="translate(-124.32 -128.27)"/><path class="cls-5" d="M939.9,885.38S915,969.74,926.11,1005.93s52.9,94.66,52.9,94.66,87.7-22.27,112.75-47.33,81.87-85.37,81.87-85.37l15.58-5.11s12.53,22.27,29.23,22.27,39,1.4,39,1.4l32,16.7,26.45,4.18s22.27,26.45,22.27,68.21S1297.79,1244,1290.83,1244s-123.89,167-128.07,171.22-157.3,214.38-157.3,214.38l-421.52,33.8-277.3-119.25,22.27-80.21s59.17-9.05,71-20.88,26.45-43.15,39-43.15h62.64c7.3,0,65.43-37.59,65.43-37.59s36.19-147.56,59.85-158.69,64-57.08,64-57.08,39.67-113.45,51.51-125.28,27.89-68,27.89-68l8.88-70.44,67.63,2,62.64,2.79Z" transform="translate(-124.32 -128.27)"/><path class="cls-3" d="M1222.75,1066.68A641.48,641.48,0,0,1,1258,986.76l-.6-.32-.58,0c-14.46,28.13-22.81,48.89-31.62,73.15Z" transform="translate(-124.32 -128.27)"/><path class="cls-3" d="M1258.8,987.16c-17.26,48.52-23.5,107.29-18.13,154.91-4.57-46.5,2.78-106.32,19.3-154.29Z" transform="translate(-124.32 -128.27)"/><path class="cls-3" d="M590.29,1602.15l-7.54-2.4C502,1574.41,438.05,1508,410.89,1428.92l-.81,1.17C437.73,1511.82,505.42,1579.57,590.29,1602.15Z" transform="translate(-124.32 -128.27)"/><path class="cls-3" d="M1138.16,1448.09,1052,1377.3S943,1360,881.91,1350.93c123.16-35.16,162-185.42,270.8-242.11l-7.44,4c-104.49,57.92-144,202.24-263.59,238.09-21-3.11-36.35-5.22-39.45-5.27-83.39-36.91-61.87-137.76-61.87-137.76,67.67-23.28,103.54-72.61,103.54-72.61-47.74,47.73-103.54,58.61-103.54,58.61l.19-.29q12.54-17.77,24.13-36.3c15-23,31.28-49.4,31.28-54.74h0A738.53,738.53,0,0,0,871.22,1024q-15.65,38.54-35.35,76.23c-.35-6.32-1.68-22.2-3.34-41.15,7.88-59,.44-120.5-22.38-174,20.85,51.72,28.07,110.53,21.79,167.35-3.68-41.47-8.55-93.31-8.55-93.31l-44.26-76.25h0l-8.88,70.44s-16.06,56.11-27.89,68-51.51,125.28-51.51,125.28-40.37,45.94-64,57.08S567,1362.3,567,1362.3s-58.13,37.59-65.43,37.59H499c0,3.94.11,7.87.33,11.77q-5.41-5.79-10.61-11.77H488q5.58,6.58,11.43,12.94c6.88,111.2,101.24,207.3,166.48,244l339.58-27.23S1093.87,1508.21,1138.16,1448.09Z" transform="translate(-124.32 -128.27)"/><path class="cls-3" d="M1169.83,1089.25a670.15,670.15,0,0,0,54.3-101.45c.38-.9.75-1.79,1.13-2.68l-1.3,0A926.16,926.16,0,0,1,1169.83,1089.25Z" transform="translate(-124.32 -128.27)"/><path class="cls-3" d="M1315.89,1007.33l-26.45-4.18s-40.61,95.57-46.27,126.72c0,4.52,17.44,51,20.23,80.21-28.68-33.47-51.65-72.25-66.13-112.5,13.69,41.4,36.9,81.06,66.35,114.88,1.25,13.21,2.15,23.93,2.15,27.68,0,12.1-24,65.91-24,65.91h0c24.65-33.67,46.22-62.07,49.09-62.07,7,0,47.33-126.68,47.33-168.44S1315.89,1007.33,1315.89,1007.33Z" transform="translate(-124.32 -128.27)"/><path class="cls-3" d="M1046.79,1116.86c60.3-27,117.43-74.78,155-129.76,1.38-2,2.77-4,4.16-6.08l-.89-.59C1165.26,1038.47,1109,1087.5,1046.79,1116.86Z" transform="translate(-124.32 -128.27)"/><path class="cls-3" d="M843.54,980.62c-1,2.5,34.78-53.89,59.49-93.29l-1.17-.06C876.93,926.51,841.72,982.61,843.54,980.62Z" transform="translate(-124.32 -128.27)"/><path class="cls-3" d="M1295.88,1004.17c-4.07,14.66-8.26,28.84-11.4,38.26,1.15-2.93,2.9-7.49,4.59-12.23,2.71-7.24,5.57-16.26,8.25-25.8Z" transform="translate(-124.32 -128.27)"/><path class="cls-3" d="M896.14,1046.51c.19-52.47,8.51-107.85,23.69-159.66l-1.15.08A512.72,512.72,0,0,0,896.14,1046.51Z" transform="translate(-124.32 -128.27)"/><path class="cls-3" d="M899.89,1280c63.83-18.68,126.63-57.46,171.91-106.17a450,450,0,0,1-47,40.85A440.17,440.17,0,0,1,899.89,1280Z" transform="translate(-124.32 -128.27)"/><path class="cls-3" d="M922.53,1046.7s17.25,34,39.32,75.43l3.4,6.38c20.61-15.55,48.57-25.55,73.34-27-24.42.62-52.32,9.84-72.83,24.92C946.62,1090.18,920.87,1043.63,922.53,1046.7Z" transform="translate(-124.32 -128.27)"/><path class="cls-3" d="M1273.17,730.27c-6.71-57.9-19.45-114.06-57.59-161-52.94-80.88-67.15-109.1-72.82-109.64-43.29,22.13-109,21.11-137.67,61.19,6.94-5.66,117.19,509,60.58,509.91a60.4,60.4,0,0,0,25.5,18.16c-29.83,45.94-15.33,117.95,19,157.46a165.94,165.94,0,0,1-6.93-34c12.78,12.39,28.73,20.86,45,22.26-17.14-3.55-33.23-13.53-45.51-28.26-2-33.74,7.09-67.92,33.73-88.46-8.06,40.91,1.41,86.43,28.22,116.81-18.24-27.15-26.64-62-25.16-96.17,5.11,30,24.4,57,49.43,67.24-32.81-38-34.46-71.61-18.19-100.31C1298.14,1013.54,1323.47,847.36,1273.17,730.27Zm-192.81,375c.18-18.85,5.84-37.77,15.19-54.82a70.86,70.86,0,0,0,10.08,2.39C1091.72,1067.5,1083.53,1085.86,1080.36,1105.22Zm91.05-40.9c12.39-21.12,34.48-39.53,60.93-55,64.87-65.93,51.73-173.29,43-258.42C1314.35,862.91,1286.12,1012,1171.41,1064.32Z" transform="translate(-124.32 -128.27)"/><path class="cls-4" d="M1096.06,522c76.82,45.78,108.11,117.62,118,131.67s34.67,143.83,28.84,186.35-37.12,101.63-47.24,109.31-61.1,8.3-78.81,5.23-93.62-19.08-129.63-41.27l-25.11-30.46s-30.87,7.08-37.36-2.11c-29-22.42-44-55.48-44-55.48l19.26-28.59s-41.69-91.32-44.23-123.67S911.06,534.49,948.62,525,1096.06,522,1096.06,522Z" transform="translate(-124.32 -128.27)"/><path class="cls-3" d="M1172.57,955c10.67-1.1,19.52-2.94,23.13-5.68,10.12-7.68,41.42-66.79,47.24-109.31a135.23,135.23,0,0,0,.83-20.29C1220.05,874.68,1189.2,909.38,1172.57,955Z" transform="translate(-124.32 -128.27)"/><path class="cls-3" d="M976.48,722.73l23.63-22.62,69.3-9.37-2.65-17.18s-62,11.34-70.59,17.86S976.48,722.73,976.48,722.73Z" transform="translate(-124.32 -128.27)"/><path class="cls-3" d="M1174,627.3c-9.76.71-47.13,27.39-47.13,27.39l-.43,17.77,51.11-34.92,27.59,3.25S1183.74,626.6,1174,627.3Z" transform="translate(-124.32 -128.27)"/><path class="cls-3" d="M1176.11,769.69c.07-2.23.61-5.22.29-7.27-19.29-5-35.8-19.26-44.35-35.19,3,18.31,12.11,35.52,30,40.93-.53,13.41-1,28.19-9.18,36.53C1164.53,799.44,1174.65,784.82,1176.11,769.69Z" transform="translate(-124.32 -128.27)"/><path class="cls-3" d="M1127,717.87c0-15,.84-46.11,1.74-61.09C1122.75,673.61,1122,700.44,1127,717.87Z" transform="translate(-124.32 -128.27)"/><path class="cls-3" d="M1064.49,712.27v-1.54a1.8,1.8,0,0,0-.08.21,20,20,0,0,1-25.27,11.77l-1.32-.44c-17.26,15.6-14,31,8.37,38.11,11.7-10.58,14-21.07,7.24-28.94A23.72,23.72,0,0,0,1064.49,712.27Z" transform="translate(-124.32 -128.27)"/><path class="cls-3" d="M1198.77,678.05a19,19,0,0,0,0-14.18v.2a12.67,12.67,0,0,1-18.1,12.1,51.48,51.48,0,0,0-5.83-2.23c-17.26,15.6-14,31,8.37,38.11,10.32-9.33,13.29-18.59,9.24-26A17.34,17.34,0,0,0,1198.77,678.05Z" transform="translate(-124.32 -128.27)"/><path class="cls-3" d="M1194.55,823.67a17.07,17.07,0,0,0,5.33,4.5c-3.16,2.19-26.27,5.57-35,2.19a77.53,77.53,0,0,0-4.77,12.76c-4.9-.4-9.16-3.3-13-6.47-14,21.54-48.28,19.8-49.16,17.91,1-.72,4-3.25,4-3.26-5.27-1.53-15.86,4.88-15.85,13.27,1.26-.1,4.71-6.44,6.74-7.16,63.65,17.55,107.91-28.85,107.91-28.85l1.4,6.85s1.7-4.79-.48-7.85C1200,825.17,1194.55,823.67,1194.55,823.67Z" transform="translate(-124.32 -128.27)"/><path class="cls-3" d="M1184.78,864.64c-13.8,14.68-44.25,20.4-62.37,12.51,22.21,21.07,63.58,8.48,70.52-21.45A71.35,71.35,0,0,1,1184.78,864.64Z" transform="translate(-124.32 -128.27)"/><path class="cls-3" d="M959.84,868.25c-15.1-22.16-39.44-40.07-64.38-47.38C922.1,823,948.81,842.63,959.84,868.25Z" transform="translate(-124.32 -128.27)"/><path class="cls-3" d="M1117.4,564.05c-1.35-17.08-7.23-88.92-12-125.8-29.06,24.09-103,3.19-151.27,38.69-28.69,9.19-61.81,18-84.66,39.44-140.36,142.83-54,243.21-64.76,283.09-7.19,33.86-9.06,66.44,2.22,97.51-5.46,9.6-12.15,17.65-22.4,18.87,8.83,9.68,23,7.4,34.55,1.76a60.19,60.19,0,0,0,8.63,8.33c-1,7.28-2.87,14.43-2.61,23.13.22,3.13.3,8.75-1.12,11.1l1.54-2.51c5.08,33.55-11,70.19-33.11,91.51,21.76-12.4,35.73-34.2,43.88-59.59.39.61.78,1.21,1.18,1.81-11.62,36.77-4.76,82.53,29,101.64,3.71,10.47,10.43,19.81,18.72,25.25,6.51,42-8.82,91.07-46.66,110.06,42.46-2.46,73.84-45.64,79.53-88.49,11.95,24.15,35.28,41.83,59.9,36.68-33-4.25-51.31-46.16-41.91-78.48,6.89-33.07,33.26-60.11,46.41-91.26a183.43,183.43,0,0,1-7,79.68c24.11-36,28.55-85.2,12.19-125.82a70.15,70.15,0,0,0,21.69,4.07c-24-8.18-24.56-12.13-38.11-33.48-6.56-10.85-18.18-17.43-24.64-27.76,3.83-19.33,8.39-39.8,10.23-59.43a120,120,0,0,0,21.36,27.88c-18.92-36-13.41-81.18-11.68-120.95q3.57-3.22,7.06-6.51c-10.12,46.88-7.1,99.32,18.16,140.33-23.1-44.79-23-98.8-10.85-147.35,8.34-7.27,14.72-17.07,23.3-23.48A329.27,329.27,0,0,0,986.6,839.23c3.93-43.64,14.63-90.61,32.39-133.5,56.61-34.09,91.18-102.87,85.89-171,18.11,47.13,2.52,104.56-34.18,136.92C1103.11,648,1121.53,605.34,1117.4,564.05Zm-310,322.48c-4.7-20.36-4.3-42.23-1.38-64a150.84,150.84,0,0,0,14.5,48.37c-4,6.18-7.41,14.29-11.39,21.93C808.54,890.8,808,888.7,807.45,886.53ZM822,917.43l-.72-.93a63.78,63.78,0,0,0,6.79-4.23,47.38,47.38,0,0,1,0,11.55A67.9,67.9,0,0,1,822,917.43Zm42.24,167.37c-21.36-19.7-24.35-52.49-15.91-80.73a59.41,59.41,0,0,0,5.76,4.81c4.21,13.23,8.82,26.31,13.29,39.54C863.37,1060.09,861.68,1072.72,864.21,1084.8Zm10.23-14.53c2.66,8.77,5,17.36,6.86,25.73a51.8,51.8,0,0,1-6-3A53,53,0,0,1,874.44,1070.27Zm9.56,41.1a48.26,48.26,0,0,1-7.32-13.69,47.68,47.68,0,0,0,5.3,1.48q1.37,6.39,2.33,12.6Zm189.82-480.86a127.6,127.6,0,0,1-32.33,31.82c5.65-10.57,16-16.89,22.85-26.63a150.86,150.86,0,0,0,29.44-64C1090,592.11,1084.37,612.23,1073.82,630.51Zm20.54-96c-1.22,37.51-14.86,75-38.59,103.26A410.62,410.62,0,0,0,1094.36,534.56Zm2.13-6.15c0-1.24-.38-2.41,0-3.59.11,1.32.09,2.65.13,4C1096.56,528.67,1096.52,528.54,1096.49,528.41ZM936.19,870.67c-4.86-29.91-7.32-57.78,4.42-85.12a131.49,131.49,0,0,0,4.51,29.12C943.55,833.3,939.88,851.87,936.19,870.67ZM1055.34,659.6A199.53,199.53,0,0,1,1025.75,690c8-23.1,17.65-23,34.24-36.59C1058.46,655.48,1056.92,657.57,1055.34,659.6Z" transform="translate(-124.32 -128.27)"/><polygon class="cls-6" points="14.15 1392.85 1517.69 1169.14 1751.36 1222.92 964.89 1743.46 14.15 1392.85"/><path class="cls-7" d="M1634.85,1510.59l108.76-72s-131-93.1-144.79-93.1c-6,0-57.45-11.36-117.55-24.17L320.55,1494l202.38,49-84.27,88.76,259.89,95.84,93.86-42.14,105.69-2.3-55.14,85,117.88,56.16,222.5-15,26.53-17.56L1185.28,1720s124.16,6,143.31-6.69L1542.08,1572c-43.5-7-92.21-15.13-85.7-15.13C1463.65,1556.86,1562.93,1530.18,1634.85,1510.59Z" transform="translate(-124.32 -128.27)"/><path class="cls-8" d="M596.58,1484.85c27.87-6.19,194.46-53.28,222.33-50.19s185.84,9.3,185.84,9.3,130.08-58.85,161-58.85,216.8,21.68,216.8,21.68l269.46,61.94-10.65,9,21.77,14.76L902.63,1660,576.07,1523.41l15.39-11.66Z" transform="translate(-124.32 -128.27)"/><path class="cls-9" d="M1364.8,1442.13c-7.89-13.15-15.75-26.32-24-39.25-59.84-9.36-119.61-16-175-17.76-31,0-161,58.84-161,58.84s-158-6.2-185.84-9.3c-17.07-1.89-88.77,21.78-148.18,41.83,28.25,10.41,70,24.44,111.15,24.21,154.1-10.74,372.27,5.22,473.76-20.93,43.48,1.23,86.83-1.43,130.2-3.64C1378.6,1464.94,1371.65,1453.56,1364.8,1442.13Z" transform="translate(-124.32 -128.27)"/><path class="cls-10" d="M596.58,1484.85s307.27,107.53,335.14,110.63c129.35-44.65,347.09-74.5,367.58-57.19,10.46-7.24,168.38-53.74,168.38-53.74l184.38-15.82-10.65,9,21.77,14.76L902.63,1660,576.07,1523.41l15.39-11.66Z" transform="translate(-124.32 -128.27)"/><path class="cls-11" d="M1652.06,1468.73l-178.33,6-184.2,55.74L1004.75,1444l279.66,93.57c-43.59,1.88-175,4.34-175,4.34l-177.71,53.61c-15.48,3.1-335.14-110.63-335.14-110.63l329,119.64L907,1645l37.16-43.37s139.38-46.45,161.06-46.45c17.75,0,138.51-12.4,181.66-16.88l4.17,1.39-16.84,21.33,65-9.29-32.72-15.14S1449,1487.08,1483,1487.08,1652.06,1468.73,1652.06,1468.73Z" transform="translate(-124.32 -128.27)"/><polygon class="cls-12" points="467.14 1383.47 782.63 1516.76 1517.09 1349.4 1538.86 1364.17 778.31 1531.77 451.75 1395.14 467.14 1383.47"/><path class="cls-11" d="M1361.54,1472.79Z" transform="translate(-124.32 -128.27)"/><path class="cls-11" d="M1494.5,1448.35a785.66,785.66,0,0,0-136.44,20.74c-1.13-.09-.69,1.09-.8,1.81.33,4.11-3.29,6.52-7,8.12-22.28,6-43.54,9.58-65.28,9.23.33,3.9.87,9.53,1.32,12.92l-13.81-.08,14.29.54c.15-2.86-.43-8.58,0-11.74,15.51.19,69.89,1.5,74.81-17.21,0,.07,0,.09,0,.11h0C1409.84,1461.56,1454.05,1453.9,1494.5,1448.35Z" transform="translate(-124.32 -128.27)"/><path class="cls-11" d="M1312.52,1442.46s.11-.54.18-.36,1,.77,1,.82c7.39,7.28,23.47,8.39,27.42-2.87,12.63,7,26.23-2.74,39-3.7,14.71-1.67,58.75-5.9,64.46-6.77-18.16-.24-71.88,3.85-95.57,8.74-5.81-.14-8.88-5.61-12.41-9.37.1,2.93,1.17,6.87.38,9.81-10.49,15.51-27.08-5.85-36.29-12.69,2.07,3.56,7,10.63,8.12,13.72-2.93,9.54-15.11,2-21.89,5.83-8.32,3.41-12.71,14.43-22.61,12.15-4.14-.54-3.82-5.38-4.73-8.56-.13.4-.87,3.08-1,1.75-1,4.91-2.49,12.26-3.16,16.5-11.67.42-19.21.66-25.92,1,7,.16,14.74.19,27,.32.74-2.28,2.29-10.68,3.17-11.63.48,1.81,2.36,2.58,4,3.12,10.24,3.44,16.54-7.45,24.67-11.19C1296,1446.65,1308.13,1452.73,1312.52,1442.46Z" transform="translate(-124.32 -128.27)"/><path class="cls-3" d="M1501.75,1389.62l49.56-19.54s-39.94-37.49-45.88-37.49-34.09,8.6-34.09,8.6Z" transform="translate(-124.32 -128.27)"/><path class="cls-3" d="M1296.49,1003.69c0,6.38-38.63,100.68-38.63,120.72s29.87,73.08,39.43,82.51,158.9,130.84,192.35,150.88,118.27,56.58,118.27,56.58l20.31-155.6-142.17-121.4s-64.46-50.9-79.09-62.08C1387.7,1060.59,1259.62,994.71,1296.49,1003.69Z" transform="translate(-124.32 -128.27)"/><path class="cls-5" d="M1291.15,1002.85s-45.23,101.52-45.23,122.74,33.16,100.55,33.16,100.55,100.64,65.65,106.62,71.54,60.33,70.14,66.9,76.62,49.15,15.32,49.15,15.32,1.41-50.47,5.81-70.72S1555.91,1197,1555.91,1197l-11.32-32.54s-69.89-45.39-87.21-62.48-40.62-36.54-40.62-36.54-13.59-42.43-27.48-42.43-53.76-20-53.76-20Z" transform="translate(-124.32 -128.27)"/><path class="cls-3" d="M1289.67,1132.71c1.73,45.68,18.57,92.17,45.85,130.55l3,2C1310.56,1226.22,1292.76,1179.14,1289.67,1132.71Z" transform="translate(-124.32 -128.27)"/><path class="cls-3" d="M1400.06,1302.47c-22.17-37.41-40.78-67.37-40.78-67.37s17.34,30.69,39.52,68.11c6.43,10.85,12.56,21.07,18,30.12l4.13,4.81C1414.94,1327.74,1407.8,1315.52,1400.06,1302.47Z" transform="translate(-124.32 -128.27)"/><path class="cls-3" d="M1369.14,1190c14.7,54.79,36.94,110.74,64.33,162.64l3.42,3.95C1409,1303.24,1385.58,1245.9,1369.14,1190Z" transform="translate(-124.32 -128.27)"/><path class="cls-3" d="M1279.56,1226.46l1.28.83c-11.95-62.23-7.81-129.14,12.74-187.61C1271.7,1097.57,1267.12,1164.45,1279.56,1226.46Z" transform="translate(-124.32 -128.27)"/><path class="cls-3" d="M1544.59,1164.49s-69.83-45.35-87.19-62.46c.92,3.38-89-8.66-123.76-36.09,34,28.73,64.53,42.45,109.92,43.5.2,1.55-102.81,9.84-102.81,9.84s51.45,17,90.18,5.06c3.33,14.16,48.51,125,48.51,125l-26.29,38.91,26.88-21.08a250,250,0,0,0-26.46,52.39c7.22-18.11,25.4-44.34,36.75-61l4.73,17.88c-5.65,23.25-14.54,62.41-8.66,85.08-4.87-21.7,13.5-68.92,13.5-68.92l19.18-6.63c14.41-37,36.84-88.86,36.84-88.86Z" transform="translate(-124.32 -128.27)"/><path class="cls-13" d="M1195.7,942.47l34.38,42.64s9.15-24.17.06-33.29-16.09-35.94-16.09-35.94Z" transform="translate(-124.32 -128.27)"/><path class="cls-3" d="M1227.37,948.43c-7.7-11-13.32-32.55-13.32-32.55l-18.35,26.59L1221,973.84C1223.09,965.37,1225.25,956.9,1227.37,948.43Z" transform="translate(-124.32 -128.27)"/><path class="cls-4" d="M1282.49,801.54s-27.11,0-33.6,6.49-6,31.94-6,31.94L1220,882.87l-30.65,41.26-.34,54.7,4.64,23.57s13.57-13.61,13.57-20.6-2.55-24.67-2.55-24.67l8.25-18.86,33-8.25s38.9,29.47,53,29.47,63.65,15.32,63.65,15.32,87.23,145,117.87,199.21,50.69,139.09,50.69,139.09,22.94,83.85,45.34,93.28,94.46,34.69,94.46,34.69l33-5.89s12.27-101.86,12.27-125.44-69.64-132.85-95.18-154.28c-10.66-8.93-162.38-222.5-171.22-231.34S1282.49,801.54,1282.49,801.54Z" transform="translate(-124.32 -128.27)"/><path class="cls-3" d="M1243.31,886.1c-4.53,3.86-8.06-7.71-12.54-4-5.33,6.82-27.11,24.63-29.26,25.86,0,0-.07,0,0,0,1.73-1.58,22.3-25.59,30.42-28.84C1237.09,878.39,1238.58,888.27,1243.31,886.1Zm-18.9-11.45c6.73-12,29.87-49.71,38.68-60.3C1250,824.43,1229.15,858.83,1224.41,874.65Z" transform="translate(-124.32 -128.27)"/><path class="cls-3" d="M498,1283.74s22.12,33.94,35.83,47.65,96,25.9,96,25.9l36.56-102.06s-51.79-24.38-65.5-24.38S498,1283.74,498,1283.74Z" transform="translate(-124.32 -128.27)"/><path class="cls-14" d="M1309.48,1386.92l25.27,40.73L1293,1404.1l-84.27-80.84L1080.18,1200c-2.54-2.44-3.25-15.06-1-17.43h0c2.27-2.38,14.91-2.2,17.45.25l128.55,123.31Z" transform="translate(-124.32 -128.27)"/><path class="cls-3" d="M1290.47,1368.68l-28.06-26.91c-11.69-.42-23.38-1-35.05-.64l51,49Q1284.57,1379.46,1290.47,1368.68Z" transform="translate(-124.32 -128.27)"/><path class="cls-3" d="M1318.81,1418.66l15.94,9-8.88-14.32Q1322.39,1416.06,1318.81,1418.66Z" transform="translate(-124.32 -128.27)"/><path class="cls-4" d="M1044.71,1342.91c10.41,0,69.1-27.27,100.94-43.36,10.73-5.43,18.41-13.72,20.17-13.72,7,0,116.93,32,116.93,32l6.07,28.46-17.21,9.13,7,23.66,4.18,22.27-8.35,15.32-4.18,27.84-26.45,9.74L1239.6,1471s-33.81,14.65-52.4,14.65-63.15-.73-82.63-.73-90.49-22.28-90.49-22.28-226.91,26.45-261.71,26.45-164.26-19.49-164.26-19.49l-55.68-11.13-1.4-75.17s33.41-139.21,43.16-165.66S659.1,993.5,659.1,993.5l150.35,62.64-103,258.93s72.38,20.88,98.83,27.84S1044.71,1342.91,1044.71,1342.91Z" transform="translate(-124.32 -128.27)"/><path class="cls-3" d="M727.26,1326.52c6.39,0,12.79.07,19.19,0-21.63-6.15-40-11.45-40-11.45l103-258.93L659.1,993.5s-75.17,197.67-84.91,224.12c-5.29,14.37-17.57,62-27.68,102.52C600.67,1290.81,667.5,1317.6,727.26,1326.52Z" transform="translate(-124.32 -128.27)"/><path class="cls-3" d="M1274.67,1365.82l-3.06-10.38c-16.62-3.58-52.76-11.54-69-15.48,0,0,29.39,15.61,38.57,15.61S1274.67,1365.82,1274.67,1365.82Z" transform="translate(-124.32 -128.27)"/><path class="cls-3" d="M1182.42,1389.55s25.72,13.78,28.47,16.53,63.51,10.61,63.51,10.61C1257.37,1410.34,1199.49,1397,1182.42,1389.55Z" transform="translate(-124.32 -128.27)"/><path class="cls-3" d="M1173.24,1447.41s38.54-.29,42.69-.29,27.84,7.15,27.84,7.15-15.16-14-22.64-14S1173.24,1447.41,1173.24,1447.41Z" transform="translate(-124.32 -128.27)"/><path class="cls-3" d="M1168.12,1307.28c-17.36,9.77-8.41,23.31-12.21,37.61-10.66,12.93-14.8,30.46,1.8,40-15-11.51-9.31-25.85.83-38.78,4.79-15.73-7.31-29.23,12.9-40.25A23.15,23.15,0,0,0,1168.12,1307.28Z" transform="translate(-124.32 -128.27)"/><path class="cls-3" d="M1149.16,1408.84c-7.11,8.82-8.87,23-4.08,33.24a67,67,0,0,1,6.19-35.71C1151.05,1406.62,1149.65,1408.12,1149.16,1408.84Z" transform="translate(-124.32 -128.27)"/><path class="cls-5" d="M779.13,882.86s-80.41,8.83-88.2,16.62-69.4,123.22-69.4,134.55-63.74,131.73-63.74,131.73l-7.08,53.82L498,1283.74s27.46,9.5,41.37,9.5,46.74-26.92,72.24-17,94.82,38.83,94.82,38.83l32.83,9.41,18.23-59.57,14.17-65.16s55.24-93.48,55.24-107.64-5.67-117.56-11.33-134.56S779.13,882.86,779.13,882.86Z" transform="translate(-124.32 -128.27)"/><path class="cls-3" d="M596.41,1203.74c1.46-.12-24.12,9.55-47.67,18.24l1.39-1.69C573.16,1211.74,597.57,1202.9,596.41,1203.74ZM775.2,991.86l-16.41-84.57c35.34,60.63,56.47,133.9,60.89,204.66l.72-1.55c-3.41-71-26.62-148.13-63.86-209.18C763.86,936.88,770.53,969.5,775.2,991.86Zm-25.81,299.57c-.51-1-1-1.93-1.52-2.91a575.16,575.16,0,0,0-66.67-98.46A741.1,741.1,0,0,1,748.91,1293Zm-96.73-36.16-11-2.18c-39.58-7.21-82.4-5.39-122.32,4.65l-1.2,1.47C562.13,1248.58,609.44,1247,652.66,1255.27Zm112.29-173c5.31,26.82,8.6,43.41,8.6,43.41s-3-16.64-7.89-43.54c-3.4-8.61-2.56-45.07-16-42.59-10.43,3.68-3.77,39.42-4.37,49.72,2.6,38.74,11.67,80,25,117.08l.28-1.3c-10.93-32.11-19-67.19-22.38-100.43-1.56-13.84-2.31-27.82-2.63-41.73.48-6.73-1.55-14.46,2-20.46C760.78,1031.29,762,1075.8,765,1082.24Zm-19.22,221.15.41-1.36a683.79,683.79,0,0,0-125.66-89.11,801,801,0,0,1,94.6,64.73C726.15,1286.53,736.08,1294.88,745.73,1303.39Zm13.81-359.11c-14.13-20.15-34-37.41-56.31-49.56l-1.82.48A192.55,192.55,0,0,1,759.54,944.28Z" transform="translate(-124.32 -128.27)"/><path class="cls-15" d="M359.52,1744.05s-52.18-29.56-47-36.52,76.52-48.7,78.26-64.35,43.48-121.74,43.48-121.74,31.3,1.74,29.56,7-26.08,123.48-34.78,127-57.39,40-57.39,40l33,24.34-8.69,33Z" transform="translate(-124.32 -128.27)"/><path class="cls-16" d="M678,1447.29l-13.67-34.19H560.62s-19.36,31.31-34.73,51.28H479.44l-42.78,22.55a34.56,34.56,0,0,0-18.45,30.58v146.13a28.07,28.07,0,0,0,28.62,28.06l42.25-.85,24.44-15.49,233.89,2.51,23.51-18.8V1493.79a32.42,32.42,0,0,0-25.28-31.62Z" transform="translate(-124.32 -128.27)"/><path class="cls-17" d="M686.25,1587.3a87.91,87.91,0,0,0-126.9-78.78c-9,4.48-40.69,21.9-48.15,25.67a87.9,87.9,0,1,0,81.67,155.65c7.82-4.27,44.53-22.9,54.41-29.53A87.78,87.78,0,0,0,686.25,1587.3Z" transform="translate(-124.32 -128.27)"/><circle class="cls-15" cx="547.71" cy="1615.79" r="76.81" transform="translate(-1106.44 732.27) rotate(-45)"/><path class="cls-15" d="M550.29,1526.2c-1.35,0-2.69,0-4,.1a86.76,86.76,0,0,1,0,173.34c1.33.06,2.67.1,4,.1a86.77,86.77,0,1,0,0-173.54Z" transform="translate(-124.32 -128.27)"/><circle class="cls-17" cx="552.95" cy="1617.12" r="67.33" transform="translate(-1105.85 736.37) rotate(-45)"/><circle class="cls-15" cx="555.28" cy="1616.33" r="57.03" transform="translate(-1104.6 737.78) rotate(-45)"/><circle class="cls-8" cx="546.59" cy="1606.05" r="34.08" transform="translate(-1099.88 728.62) rotate(-45)"/><path class="cls-15" d="M560.08,1508.19c-6.68,3.73-12.79,8.37-19.49,12.14-5.48,3.1-11.16,5.85-16.72,8.79a91.39,91.39,0,0,1,10.67-2q10.1-6.25,20.11-12.65c5-3.22,10-6.62,14.79-10.12A87.38,87.38,0,0,0,560.08,1508.19Z" transform="translate(-124.32 -128.27)"/><path class="cls-15" d="M598.35,1499.4a89.18,89.18,0,0,0-10.79.67l-1.5,1.13c-7.43,5.57-14.81,11.34-22.58,16.44-3.9,2.55-7.84,5-11.77,7.53l-2,1.25a91.1,91.1,0,0,1,21.54,3.45c12.54-9.12,24.09-19.47,35.43-30.06C603.94,1499.55,601.16,1499.4,598.35,1499.4Z" transform="translate(-124.32 -128.27)"/><path class="cls-15" d="M634.9,1507.36c-13.19,11-26.12,22.38-39,33.83,2,1.29,3.9,2.67,5.76,4.11,12.29-12.19,24.78-24.21,37.77-35.67C638,1508.84,636.45,1508.07,634.9,1507.36Z" transform="translate(-124.32 -128.27)"/><path class="cls-15" d="M655.9,1520.9a89.3,89.3,0,0,0-9.65-7.28q-8.79,7.73-17.31,15.75c-7.26,6.81-14.38,13.78-21.45,20.79a91,91,0,0,1,7.19,7.38Q635,1538.85,655.9,1520.9Z" transform="translate(-124.32 -128.27)"/><path class="cls-15" d="M625.84,1573.44c1.25-1.31,2.48-2.64,3.74-3.94,12.23-12.58,24.88-24.72,37.74-36.63a87.46,87.46,0,0,0-6-6.8q-21.27,18.33-42,37.33A90.54,90.54,0,0,1,625.84,1573.44Z" transform="translate(-124.32 -128.27)"/><path class="cls-15" d="M629.39,1580.57c1.14,2.58,2.15,5.23,3.06,7.93,14.17-14.65,28.16-29.52,42.9-43.57-1.13-2-2.32-4-3.59-6C657.25,1552.45,643,1566.24,629.39,1580.57Z" transform="translate(-124.32 -128.27)"/><path class="cls-15" d="M634.79,1596.81c.54,2.31,1,4.66,1.32,7,15-15,29.89-30.29,45.47-44.74-.83-2.45-1.74-4.86-2.78-7.21C663.7,1566.43,649.39,1581.77,634.79,1596.81Z" transform="translate(-124.32 -128.27)"/><path class="cls-15" d="M637.06,1613.46c0,.93.06,1.86.08,2.79,15.64-14.3,31.44-28.52,48.15-41.53-.37-2.54-.81-5-1.39-7.51C667.91,1582.23,652.65,1598,637.06,1613.46Z" transform="translate(-124.32 -128.27)"/><path class="cls-15" d="M686.13,1583.54c-17.15,13.62-33.3,28.44-49.45,43.25a90.36,90.36,0,0,1-1.91,11.36c17.05-16,33.61-32.61,51.42-47.81,0-1,.06-2,.06-3C686.25,1586,686.19,1584.79,686.13,1583.54Z" transform="translate(-124.32 -128.27)"/><path class="cls-15" d="M630,1652.81c-.72,1.68-1.49,3.32-2.3,5,17.49-11.77,34.39-24.44,51.71-36.48a87.4,87.4,0,0,0,5.77-20.21c-8.65,7.66-17,15.63-25.36,23.58C649.93,1634.08,640.14,1643.65,630,1652.81Z" transform="translate(-124.32 -128.27)"/><path class="cls-15" d="M618.29,1672.83c-1.57,2.05-3.24,4-5,5.93.85-.4,1.69-.81,2.53-1.23a172.8,172.8,0,0,1,20.38-12c8-5.82,15.83-12,24.6-16.51a88.18,88.18,0,0,0,10.64-13C653.91,1648.57,636.54,1661.38,618.29,1672.83Z" transform="translate(-124.32 -128.27)"/><path class="cls-15" d="M616.09,1501.2c-5.69,5.34-11.4,10.67-17.23,15.84-6.15,5.45-12.47,10.77-19,15.76a90.81,90.81,0,0,1,9.37,4.37l.56-.5c12.29-11,24.67-21.85,37.29-32.47A87.4,87.4,0,0,0,616.09,1501.2Z" transform="translate(-124.32 -128.27)"/><path class="cls-15" d="M474,1474.64c-3.42-5.7,1.14-25.07,1.14-25.07l54.69-13.68,10.26,18.24-16,17.09Z" transform="translate(-124.32 -128.27)"/><path class="cls-17" d="M466,1497.43c0,3.14-5.1,5.69-11.39,5.69s-11.4-2.55-11.4-5.69,5.1-5.7,11.4-5.7S466,1494.28,466,1497.43Z" transform="translate(-124.32 -128.27)"/><path class="cls-17" d="M588,1406.27c-3.41,0-30.76,21.65-30.76,21.65h74.06l20.52-12.54-4.56-9.11-16-1.14-19.37,14.81L588,1418.8l10.26-8Z" transform="translate(-124.32 -128.27)"/><path class="cls-15" d="M696.21,1554.4c-1.86-10.65,21.65,25.07,21.65,25.07l-1.14,37.6-23.92,9.12S704.19,1600,696.21,1554.4Z" transform="translate(-124.32 -128.27)"/><path class="cls-17" d="M553.12,1443.63c14.6,0,90.25,1.32,90.25,1.32l17.25,34.51,70.34,14.6s24.94,0,16.45,183.81c0,0-1.85-159.92-24.41-179.83l-66.36-11.94-17.25-35.84Z" transform="translate(-124.32 -128.27)"/><path class="cls-15" d="M425.71,1524.59c45.12,23.88,98.21-23.89,98.21-23.89l21.24-4V1510l5.31-19.91-27.88,2.65S486.76,1536.53,425.71,1524.59Z" transform="translate(-124.32 -128.27)"/><path class="cls-15" d="M785.6,1521.44c-5.22,3.48-29.56,33-29.56,33S810,1638,816.91,1662.31s-41.74,127-52.18,107.83-102.61-36.52-153-13.91-45.22,40-90.44,34.78-116.52-71.31-116.52-71.31l-45.21,24.35s111.3,78.26,158.26,87,116.52-64.35,153-62.61,93.91,43.48,93.91,43.48S867.14,1705.32,858.64,1678,785.6,1521.44,785.6,1521.44Z" transform="translate(-124.32 -128.27)"/><polygon class="cls-18" points="631.72 1426.22 629.98 1368.83 661.28 1393.17 631.72 1426.22"/><path class="cls-8" d="M1157.33,1666l212.31-94.34a22.21,22.21,0,0,1,12.1-.86l127.38,30.31-219.87,104.73S1154.3,1667.37,1157.33,1666Z" transform="translate(-124.32 -128.27)"/><path class="cls-16" d="M1156.63,1666.62l127.06,30.24a22.21,22.21,0,0,0,12.1-.86l212.32-94.34a1.6,1.6,0,0,0,.69-.59l.32.07,1.12,7.92-212.8,96.23-12.7.9L1155.35,1674S1155.11,1668.81,1156.63,1666.62Z" transform="translate(-124.32 -128.27)"/><path class="cls-16" d="M1307.61,1683.26l169.61-75.36c2.42-1.07,2-2.51-.91-3.2l-101.76-24.21a17.59,17.59,0,0,0-9.66.69l-169.62,75.36c-2.42,1.07-2,2.5.91,3.2L1297.94,1684A17.62,17.62,0,0,0,1307.61,1683.26Z" transform="translate(-124.32 -128.27)"/><path class="cls-17" d="M1195.27,1656.54l3-1.32c87.29-16.57,174.58-33.23,258.73-55.12l19.35,4.6c2.92.69,3.33,2.13.91,3.2L1451,1619.57q-25.28,6.66-50.65,13.13c-53.5,13.57-107.6,26.23-162.84,36.86l-41.29-9.82C1193.26,1659,1192.85,1657.61,1195.27,1656.54Z" transform="translate(-124.32 -128.27)"/><path class="cls-17" d="M1307.61,1683.26a17.62,17.62,0,0,1-9.67.69l-33.76-8c41.5-8.4,82.38-17.89,122.9-28Z" transform="translate(-124.32 -128.27)"/><path class="cls-17" d="M1364.89,1581.18a17.59,17.59,0,0,1,9.66-.69l12,2.85q-26.49,6.2-53.28,11.9Z" transform="translate(-124.32 -128.27)"/><ellipse class="cls-17" cx="911.55" cy="1643.42" rx="165.79" ry="49.29"/><ellipse class="cls-16" cx="911.55" cy="1636.31" rx="165.79" ry="49.29"/><path class="cls-19" d="M1105.46,1548.9c8.65,0,54.1-51.94,93-15.15s-84.25,181.9-84.25,181.9l2-49.89s60.59-49.77,69.25-93.06-41.12-43.28-84.4,2.17Z" transform="translate(-124.32 -128.27)"/><path class="cls-15" d="M1090.62,1552.52c8.65,0,54.1-51.94,93.06-15.15s-84.26,181.91-84.26,181.91l2-49.89s60.6-49.78,69.25-93.06-41.12-43.28-84.4,2.16Z" transform="translate(-124.32 -128.27)"/><path class="cls-19" d="M1118.69,1773.73c-20.28,6.48-73,18-155.67-.88a14.62,14.62,0,0,1-11.38-13.55c-2.65-55.9-18.9-213-22.92-266.58a14.58,14.58,0,0,1,10.89-15.22c19.34-5,59.73-14,100.41-14s81.25,9,100.59,14a14.59,14.59,0,0,1,10.89,15.15l-22.7,268.16A14.59,14.59,0,0,1,1118.69,1773.73Z" transform="translate(-124.32 -128.27)"/><path class="cls-15" d="M1024.9,1528.89q.82,14.16,1.55,28.33c3.64,71.77,5.52,143.62,8.36,215.43,37.22,1.55,63.59-3.22,78.59-7.23q.13-6.35.32-12.69c2.33-78.16,10.78-156,16.08-234C1095.19,1525.06,1060,1529.6,1024.9,1528.89Z" transform="translate(-124.32 -128.27)"/><path class="cls-17" d="M989,1543.9c3.63,75.13,6.22,150.3,9.44,225.45,3.11.43,6.18.82,9.19,1.16-3.2-81.15-5.21-162.38-9.93-243.46-3.21-.4-6.42-.91-9.62-1.46Q988.56,1534.74,989,1543.9Z" transform="translate(-124.32 -128.27)"/><path class="cls-17" d="M1097.85,1523.94q0,13.9-.1,27.81c-.31,72.45-.87,144.9-1.25,217.35,6.68-1.16,12.32-2.46,16.9-3.68q.13-6.35.32-12.69c2.33-78.16,10.78-156,16.08-234C1119.2,1520.67,1108.54,1522.44,1097.85,1523.94Z" transform="translate(-124.32 -128.27)"/><ellipse class="cls-16" cx="917.13" cy="1364" rx="102.34" ry="16.54"/><path class="cls-8" d="M958.1,1501.87c18.55,4.2,49,7,83.36,7s64.8-2.75,83.35-7c-18.55-4.21-49-6.95-83.35-6.95S976.65,1497.66,958.1,1501.87Z" transform="translate(-124.32 -128.27)"/><ellipse class="cls-20" cx="955.93" cy="275.39" rx="154.34" ry="143.28" transform="translate(-150.94 302.8) rotate(-25.07)"/><path class="cls-16" d="M1113.81,274.12c-3.92-72.81-74.19-120.37-133.63-145.85,37.92,18.29,83.07,44.09,108,81.92,49.55,74.89,12.53,147-67.42,176.4a52.3,52.3,0,0,0-4.22-17.31,92.91,92.91,0,0,1,.26,18.75c-45.56,16.32-100.22,15.35-142.56-9.83-77.16-47-88.82-152.87-13.73-206.6,44.62-33.91,109.33-49.18,159.35-19.72C969.87,121,904.2,135.59,858.66,169.24c-78.22,54.53-66.56,164.64,13,213.21,42.85,25.64,98.17,27.06,144.44,10.84a93.46,93.46,0,0,1-14.66,38.42c11.65-9.27,19.17-25,19.36-40.11C1070.13,374.07,1118.65,330.26,1113.81,274.12Z" transform="translate(-124.32 -128.27)"/><polygon class="cls-18" points="743.49 221.26 779.97 229.95 795.6 223 766.07 200.42 743.49 221.26"/><polygon class="cls-14" points="737.31 218.69 707.93 177.08 732.41 174.63 774.02 201.56 737.31 218.69"/><path class="cls-18" d="M903.24,302.9s149.37-109,160.41-110.08c3.56-.35,19.87-4.25,33.33-4.13,10.28.09,14.83,13,7,19.66l-21.11,17.78-209,133.07L861.63,347Z" transform="translate(-124.32 -128.27)"/><polygon class="cls-18" points="737.31 218.69 698.34 212.58 720.91 198.69 774.02 201.56 737.31 218.69"/><polygon class="cls-18" points="837.23 140.55 682.65 81.5 725.74 66.08 884.12 109.29 837.23 140.55"/><path class="cls-18" d="M894.67,249.19c-2.37,3.16-8.59,14.75-8.59,14.75s20.45,1.06,22.82-6.06S894.67,249.19,894.67,249.19Z" transform="translate(-124.32 -128.27)"/><path class="cls-14" d="M896.79,240.65l21-16.41s26.73-5.9,22.78,15.46l-27.3,21.8a13.15,13.15,0,0,1-15.33.91l-.41-.27A13.3,13.3,0,0,1,896.79,240.65Z" transform="translate(-124.32 -128.27)"/><path class="cls-18" d="M922.31,227c.4,5.73,5.86,12.68,14.3,9.7C940.58,233.71,932.83,222.26,922.31,227Z" transform="translate(-124.32 -128.27)"/><path class="cls-18" d="M923.32,262.29C921,265.45,914.74,277,914.74,277s20.45,1.06,22.82-6.06S923.32,262.29,923.32,262.29Z" transform="translate(-124.32 -128.27)"/><path class="cls-14" d="M925.44,253.75l21-16.41s26.74-5.9,22.78,15.46l-27.3,21.8a13.15,13.15,0,0,1-15.33.91l-.41-.27A13.32,13.32,0,0,1,925.44,253.75Z" transform="translate(-124.32 -128.27)"/><path class="cls-18" d="M951,240.09c.4,5.73,5.86,12.68,14.29,9.7C969.23,246.81,961.48,235.36,951,240.09Z" transform="translate(-124.32 -128.27)"/><polygon class="cls-18" points="907.36 127.38 1004.77 184.24 987.68 197.08 859.51 158.56 907.36 127.38"/><path class="cls-18" d="M1001.29,294.34c-2.44,3.1-9,14.62-9,14.62s19.4,2.2,22.06-4.95S1001.29,294.34,1001.29,294.34Z" transform="translate(-124.32 -128.27)"/><path class="cls-14" d="M1003.79,285.72l20.87-15.64s25.77-4.58,20.8,17l-27.2,20.82a11.85,11.85,0,0,1-14.64.1l-.37-.3C996.43,302.17,996.72,291,1003.79,285.72Z" transform="translate(-124.32 -128.27)"/><path class="cls-18" d="M1028.84,273.14c.06,5.88,4.86,13.29,13.05,10.7C1045.84,281,1039.12,268.87,1028.84,273.14Z" transform="translate(-124.32 -128.27)"/><path class="cls-18" d="M1030.92,309.47c-2.43,3.1-9,14.62-9,14.62s19.4,2.2,22.06-4.95S1030.92,309.47,1030.92,309.47Z" transform="translate(-124.32 -128.27)"/><path class="cls-14" d="M1033.43,300.85l20.87-15.64s25.77-4.58,20.8,17l-27.2,20.82a11.85,11.85,0,0,1-14.64.1l-.38-.3C1026.07,317.3,1026.36,306.14,1033.43,300.85Z" transform="translate(-124.32 -128.27)"/><path class="cls-18" d="M1058.48,288.27c.06,5.88,4.86,13.29,13,10.7C1075.48,296.14,1068.76,284,1058.48,288.27Z" transform="translate(-124.32 -128.27)"/><ellipse class="cls-20" cx="1430.87" cy="524.37" rx="160.29" ry="148.8" transform="translate(-211.7 527.54) rotate(-25.07)"/><path class="cls-16" d="M1597.66,506.34c-2.23-71.35-67.1-134.52-138.15-134.41,46.5,1.06,90.2,28.81,114.65,68.5,65.22,107.32-36.79,243.89-159,220.48a118.72,118.72,0,0,0,9.74-23.63,189.34,189.34,0,0,1-13.42,23c-87.15-13.54-141.7-106.6-118.79-189.64,17.24-68.47,93.45-116.57,159.52-108.45-66.82-9.7-144.62,38.41-162.82,107.54-24.5,83.95,30.69,180.27,118.9,195a183.12,183.12,0,0,1-61.75,53.29c26.56-8.26,51.72-28.32,66-52.5C1510.1,685,1602.28,604.32,1597.66,506.34Z" transform="translate(-124.32 -128.27)"/><path class="cls-14" d="M1379,565.94c3.53-2.53,5.47-4.11,5.47-4.11-18.3-.6-73.65,18.12-103.91,36.06,9.22.05,27.39.69,40.7.43-7.16,11.11-15.93,26.37-20.66,34.06,31.22-16.22,76.34-53.35,85.49-69.21C1386,563.17,1383.4,564.09,1379,565.94Z" transform="translate(-124.32 -128.27)"/><path class="cls-21" d="M1457.6,514.81c-34.47,29.51-90.81,65-132.33,83.26C1363.13,573.4,1419,538.26,1457.6,514.81Z" transform="translate(-124.32 -128.27)"/><path class="cls-5" d="M1550.74,443.21c-25.15-30.2-74.18-28-90.28,23.92-38.87-38.5-140.66-4.51-108.11,58.08,26,45.8,104.81,21.93,122,88.1l.15-.53c.37,1.19,55-45.57,83.63-106.75C1567.82,485.34,1565.35,460.75,1550.74,443.21Z" transform="translate(-124.32 -128.27)"/><path class="cls-21" d="M1610.76,420.92c-34.48,29.51-90.81,64.95-132.34,83.26C1516.28,479.51,1572.13,444.37,1610.76,420.92Z" transform="translate(-124.32 -128.27)"/><path class="cls-14" d="M1612.38,420.48c-10.29.74-28.41,3.93-36.63,6.59,4.53.55,19.78,5.39,19.8,5.4-2.9,5.69-1.82,15.1-2.89,19.17,5.8-6.78,15.36-21.65,20.27-31.21Z" transform="translate(-124.32 -128.27)"/><path class="cls-5" d="M1573.41,586.36c-1-6.45-7.94-10.65-14.14-10.19,6-12.13-7.18-27-18.15-15.78-23,22.08,6.59,58.45-15.82,62.84C1541.06,619,1573.27,608.22,1573.41,586.36Zm-8.88,4.11c-45.18,66.35-28.76-23.94-14.46-23.71,1.82,13.56-23.06,32.59-.86,35.87,2.64-4.08,4-11.29,7.22-15.09C1559.21,585.44,1565.62,585.66,1564.53,590.47Z" transform="translate(-124.32 -128.27)"/><path class="cls-5" d="M1374.77,382.92Z" transform="translate(-124.32 -128.27)"/><path class="cls-5" d="M1412.84,434.79c-10.85-17.81,5.7-43.34-4-61.68-10-12.47-29.86-3.87-33.91,10.05l0-.14c-42.66-11.24-41.5,72,39.09,53.83Zm-2.55-.14c-15.45.32-27.69-3.35-39-11.48a19.28,19.28,0,0,1-7.52-20.73,8.92,8.92,0,0,1,2.67-4.56c6.87,2.34,14.8,11.62,19.5,15.21,2.14-9.52,1.8-20.26,6.61-28.66,13.65-15.55,4.33,44.26,19.66,50.81A9.49,9.49,0,0,0,1410.29,434.65Z" transform="translate(-124.32 -128.27)"/><path class="cls-5" d="M1374.77,382.92l0,0Z" transform="translate(-124.32 -128.27)"/><ellipse class="cls-20" cx="1689.57" cy="859.57" rx="145.77" ry="170.57" transform="translate(251.04 2097.44) rotate(-73.07)"/><path class="cls-16" d="M1854.17,856.94C1847,752.89,1735,712.5,1651.82,693.18c56.19,15.78,128.47,36.51,168.06,87.54,72.34,90.17,5.93,185-95.23,206.49-58.64,14.81-128.55,10.4-173.24-34.54-26.08-25.38-42.79-60.48-45.27-96.84a57.38,57.38,0,0,0,18.76-15.11,105,105,0,0,1-19,10.4c-3.94-100.29,87.23-176.94,184.18-166.53-98.84-12.53-192.06,65.95-188,168a105.31,105.31,0,0,1-41.28,6.66,58.6,58.6,0,0,0,41.6-1.67c3.74,54.51,38.9,106,89.14,128C1686.21,1026.29,1855.41,977.62,1854.17,856.94Z" transform="translate(-124.32 -128.27)"/><path class="cls-18" d="M1855.82,912.53c15.6-43.47-7.3-91.45-7.3-91.45l-45.36-16.27s-48.18,22.48-63.77,65.94,7.3,91.44,7.3,91.44l45.36,16.28S1840.23,956,1855.82,912.53Z" transform="translate(-124.32 -128.27)"/><path class="cls-14" d="M1746.69,962.19s-22.9-48-7.3-91.44,63.77-65.94,63.77-65.94,22.9,48,7.3,91.44S1746.69,962.19,1746.69,962.19Z" transform="translate(-124.32 -128.27)"/><path class="cls-5" d="M1758.07,899.37l-128.08-46A20.64,20.64,0,0,1,1617.53,827h0a20.64,20.64,0,0,1,26.4-12.46l128.08,46C1782.73,864.38,1768.8,903.22,1758.07,899.37Z" transform="translate(-124.32 -128.27)"/><path class="cls-18" d="M1664.05,843.72c15.6-43.46-7.3-91.45-7.3-91.45L1611.39,736s-48.18,22.48-63.77,65.94,7.3,91.44,7.3,91.44l45.36,16.28S1648.46,887.18,1664.05,843.72Z" transform="translate(-124.32 -128.27)"/><path class="cls-14" d="M1554.92,893.38s-22.9-48-7.3-91.44S1611.39,736,1611.39,736s22.9,48,7.3,91.44S1554.92,893.38,1554.92,893.38Z" transform="translate(-124.32 -128.27)"/><path class="cls-18" d="M1599.86,820.69c7.89-22-3.69-46.22-3.69-46.22l-11.6-4.16s-24.34,11.36-32.23,33.32,3.7,46.22,3.7,46.22l11.59,4.16S1592,842.65,1599.86,820.69Z" transform="translate(-124.32 -128.27)"/><path class="cls-5" d="M1556,849.85s-11.58-24.25-3.7-46.22,32.23-33.32,32.23-33.32,11.58,24.25,3.7,46.21S1556,849.85,1556,849.85Z" transform="translate(-124.32 -128.27)"/><ellipse class="cls-20" cx="566.84" cy="574.11" rx="158.43" ry="147.08" transform="translate(-314.21 166.06) rotate(-25.07)"/><path class="cls-16" d="M721.86,703.58a101.15,101.15,0,0,1-56.42-11.28c67.45-44.33,93.63-143.79,36.87-205.37-29.85-36.7-81.73-59.59-121.58-74.79,39.23,16.08,90.36,39.64,119.49,76.53C755.17,550,727.53,647.34,660.41,689.5a97.74,97.74,0,0,1-22.88-19,70.55,70.55,0,0,0,18.83,21.63c-73.5,47.39-173,22.16-214.76-54.62-59.88-118,52.09-244.15,173.71-196.32C490.68,390,377.07,519.29,437.23,639.82,480.4,720.45,585,746.23,660.92,695.34c19.15,12.82,46,16.09,67.06,7.42C728.21,702.73,723.35,703.36,721.86,703.58Z" transform="translate(-124.32 -128.27)"/><path class="cls-21" d="M498.87,405.41c92.16,0,220.82,86.1,220.82,86.1l20,7.49-13.91,23.93s-16.52,101.81-83,157.63l-13.94,21.22L620.1,684.1s-132.44-26.47-200.38-95.41l-22.65-5.3,15.68-14.14s3.66-86.18,68.7-151.22v-23Z" transform="translate(-124.32 -128.27)"/><path class="cls-14" d="M713.2,519.15c-68,60.46-84.39,156.18-84.39,156.18S696.82,627.47,713.2,519.15Z" transform="translate(-124.32 -128.27)"/><path class="cls-18" d="M511.48,582.09l3.39-11.89L554,534.1l-24.21,1-1.14,3.41-12.24-.08-1.58-10.23,1.58-7.24,15.23.43.18,1-.18.79,24.21-.09.79-1.84,14.44-.53-4.49,15.14L531.47,570l24.65-1.23,1.14-4.32h12.5L569.67,584l-14.61-.53-.79-3.7-27.56,2.11-.7,1.59-14.44.61-.09-2Z" transform="translate(-124.32 -128.27)"/><path class="cls-18" d="M573.89,558.1l4.1-14.37,47.32-43.67L596,501.33l-1.38,4.12-14.8-.1L577.93,493l1.92-8.76,18.42.53.21,1.17-.21,1,29.27-.11,1-2.23L646,483.9l-5.43,18.31-42.48,41.3L627.86,542l1.39-5.21h15.11l-.1,23.63-17.68-.64-1-4.47-33.33,2.56-.85,1.91-17.46.75-.1-2.45Z" transform="translate(-124.32 -128.27)"/><path class="cls-18" d="M527.85,477.59l5.66-19.84,65.32-60.27-40.41,1.75-1.91,5.69-20.43-.14-2.64-17.07,2.64-12.08,25.42.72.3,1.61-.3,1.33,40.41-.15,1.32-3.09,24.1-.88-7.49,25.28-58.63,57,41.14-2.06,1.91-7.2h20.87L625,480.82l-24.39-.88-1.32-6.17-46,3.52-1.17,2.65L528,481l-.15-3.38Z" transform="translate(-124.32 -128.27)"/><circle class="cls-20" cx="328.73" cy="1009.63" r="175.8" transform="translate(-741.96 399.89) rotate(-45)"/><path class="cls-16" d="M542.32,1086.15a115.72,115.72,0,0,1-50.76,2.25c71-120.06-20.2-245.39-143.65-265.5C469.55,845,559.19,969.44,487,1087.52a115.86,115.86,0,0,1-22.86-7.55,71.59,71.59,0,0,0,20.65,11.1c-66.23,110.31-242.45,93.13-294.07-21.13C127.7,937.46,232.17,797.39,373.4,805c-144.13-10-249.86,132.84-186.73,267,52.82,118.49,235.41,135.49,302.48,20.51,18.4,5.28,40.23,2.58,56.39-7.15Z" transform="translate(-124.32 -128.27)"/><circle class="cls-21" cx="328.44" cy="813.34" r="30.93" transform="translate(-663.34 815.11) rotate(-76.54)"/><circle class="cls-21" cx="406.28" cy="853.26" r="30.93" transform="translate(-642.45 921.43) rotate(-76.54)"/><circle class="cls-21" cx="362.37" cy="747.48" r="30.93" transform="translate(-387.15 72.25) rotate(-22.95)"/><path class="cls-5" d="M470.77,1004.44c-.55-25.92-29-53-50.52-64.22,8.27-4.87,28.24-10.78,34.34-18.43,9.61-10.81,2.37-28.37-12.58-27-14.26,1.31-29.32,5.52-41.25,8.86-20.57-4.51-24.47-20.81-31.62-38.41-10.28-20.07-34.68-16.66-44.9,1.38-.05-.18-.09-.27-.06-.36-10.58-12.75-62-42.22-71.94-20.48-6.1,11.6,32.93,50.73,40.06,61.92-76.62,20.92-111.42,125.61-42.86,178.1C321.89,1144,470.81,1108.92,470.77,1004.44Z" transform="translate(-124.32 -128.27)"/><path class="cls-21" d="M329.93,1063.35v-11.11a66,66,0,0,1-37.42-16.58l11.1-13.24q12.78,11.11,26.32,13.24v-29.52q-17.19-4.1-25.18-10.8t-8-19.85q0-13.15,9.2-21.53t24-9.13v-7.61h9.74V945a63.71,63.71,0,0,1,31.65,11.41l-9.89,14a49.07,49.07,0,0,0-21.76-8.82v28.6h.46q17.49,4.11,25.71,11.11t8.21,20.31q0,13.3-9.43,21.68t-24.95,9.13v10.95Zm-10.72-98.21a10.91,10.91,0,0,0-3.88,8.52,10.75,10.75,0,0,0,3,8.07c2,2,5.88,3.88,11.56,5.7V961.11Q323.09,961.72,319.21,965.14Zm32,66.72a11.76,11.76,0,0,0,.92-17.27q-3.36-3.12-12.48-5.86v27.39Q347,1035.36,351.23,1031.86Z" transform="translate(-124.32 -128.27)"/><path class="cls-8" d="M393.12,706l-2.39-15.6L388.35,706a20.09,20.09,0,0,1-16.82,16.82l-15.59,2.38,15.59,2.38a20.09,20.09,0,0,1,16.82,16.82L390.73,760l2.39-15.59a20.07,20.07,0,0,1,16.81-16.82l15.6-2.38-15.6-2.38A20.07,20.07,0,0,1,393.12,706Z" transform="translate(-124.32 -128.27)"/><path class="cls-8" d="M384.62,801.08l-1.42-9.32-1.43,9.32a12,12,0,0,1-10,10l-9.31,1.42,9.31,1.42a12,12,0,0,1,10,10l1.43,9.31,1.42-9.31a12,12,0,0,1,10-10l9.31-1.42-9.31-1.42A12,12,0,0,1,384.62,801.08Z" transform="translate(-124.32 -128.27)"/><path class="cls-8" d="M299,807.27,297.56,798l-1.43,9.31a12,12,0,0,1-10,10l-9.31,1.43,9.31,1.42a12,12,0,0,1,10,10l1.43,9.31L299,830.2a12,12,0,0,1,10-10l9.31-1.42L309,817.31A12,12,0,0,1,299,807.27Z" transform="translate(-124.32 -128.27)"/></svg>