<svg data-v-423bf9ae="" xmlns="http://www.w3.org/2000/svg" viewBox="0 0 437 90" class="iconLeft"><!----><!----><!----><g data-v-423bf9ae="" id="34d02354-448e-4502-b120-bff1e056108c" fill="#000000" transform="matrix(5.305040038302126,0,0,5.305040038302126,109.04508950741587,0.14588981464812179)"><path d="M6.41 4.20L0.18 4.20L0.18 5.50L2.66 5.50L2.66 14L3.99 14L3.99 5.50L6.41 5.50ZM11.91 7L11.91 8.12C11.37 7.39 10.56 6.90 9.52 6.90C7.57 6.90 6.24 8.48 6.24 10.50C6.24 12.52 7.57 14.10 9.52 14.10C10.56 14.10 11.37 13.61 11.91 12.88L11.91 14L13.23 14L13.23 7ZM9.74 12.82C8.48 12.82 7.60 11.79 7.60 10.50C7.60 9.23 8.48 8.19 9.74 8.19C11.00 8.19 11.91 9.27 11.91 10.50C11.91 11.73 11.00 12.82 9.74 12.82ZM17.32 14.11C18.77 14.11 19.74 13.24 19.75 12.10C19.75 9.66 16.39 10.12 16.41 8.86C16.41 8.44 16.79 8.16 17.32 8.16C17.91 8.16 18.47 8.57 18.77 8.85L19.54 7.88C19.11 7.39 18.28 6.87 17.30 6.89C15.93 6.89 15.05 7.77 15.05 8.83C15.04 11.21 18.38 10.71 18.38 12.07C18.38 12.53 17.95 12.84 17.36 12.84C16.70 12.84 16.10 12.45 15.67 12.03L14.84 13.01C15.41 13.65 16.44 14.11 17.32 14.11ZM27.33 14L24.01 10.54L27.13 7L25.52 7L22.65 10.32L22.65 2.80L21.34 2.80L21.34 14L22.65 14L22.65 10.78L25.62 14ZM38.54 5.49L38.54 4.20L33.29 4.20L33.29 14L34.62 14L34.62 10.01L37.41 10.01L37.41 8.72L34.62 8.72L34.62 5.49ZM39.69 14L41.01 14L41.01 2.80L39.69 2.80ZM46.23 14.11C48.34 14.11 49.80 12.45 49.80 10.50C49.80 8.55 48.34 6.89 46.23 6.89C44.11 6.89 42.66 8.55 42.66 10.50C42.66 12.45 44.11 14.11 46.23 14.11ZM46.23 12.80C44.91 12.80 44.00 11.73 44.00 10.49C44.00 9.25 44.91 8.20 46.23 8.20C47.57 8.20 48.44 9.25 48.44 10.49C48.44 11.73 47.57 12.80 46.23 12.80ZM60.34 7L57.67 12.42L56.56 10.22L58.20 7L56.85 7L55.92 9.02L54.99 7L53.65 7L55.27 10.23L54.19 12.42L51.51 7L50.11 7L53.66 14.03L54.66 14.03L55.92 11.45L57.19 14.03L58.17 14.03L61.74 7Z"></path></g><defs data-v-423bf9ae=""><linearGradient data-v-423bf9ae="" gradientTransform="rotate(25)" id="e5b62ca4-1f2c-42c8-b83b-14f0cb14162b" x1="0%" y1="0%" x2="100%" y2="0%"><stop data-v-423bf9ae="" offset="0%" style="stop-color: rgb(81, 164, 251); stop-opacity: 1;"></stop><stop data-v-423bf9ae="" offset="100%" style="stop-color: rgb(81, 164, 251); stop-opacity: 1;"></stop></linearGradient></defs><g data-v-423bf9ae="" id="39cb69dd-b4d8-4a53-932a-d7fb26eac499" transform="matrix(2.8125,0,0,2.8125,0,0)" stroke="none" fill="url(#e5b62ca4-1f2c-42c8-b83b-14f0cb14162b)"><path d="M15.965 16.258l.707-.707 10.39 10.39-.707.707z"></path><path d="M4.935 26.357L26.018 5.274l.707.707L5.642 27.065z"></path><path d="M31 1v4.194h-4.194V1H31m1-1h-6.194v6.194H32V0zM31 26.806V31h-4.194v-4.194H31m1-1h-6.194V32H32v-6.194zM5.194 26.806V31H1v-4.194h4.194m1-1H0V32h6.194v-6.194z"></path></g><!----></svg>